<?xml version="1.0" encoding="UTF-8" ?>
<svg version="1.1" width="32" height="32" xmlns="http://www.w3.org/2000/svg" shape-rendering="crispEdges">
<rect x="15" y="2" width="2" height="1" fill="#9BADB7" />
<rect x="14" y="3" width="1" height="1" fill="#9BADB7" />
<rect x="15" y="3" width="2" height="1" fill="#696A6A" />
<rect x="17" y="3" width="1" height="1" fill="#9BADB7" />
<rect x="13" y="4" width="1" height="1" fill="#9BADB7" />
<rect x="14" y="4" width="1" height="1" fill="#696A6A" />
<rect x="15" y="4" width="2" height="3" fill="#595652" />
<rect x="17" y="4" width="1" height="1" fill="#696A6A" />
<rect x="18" y="4" width="1" height="1" fill="#9BADB7" />
<rect x="12" y="5" width="1" height="1" fill="#9BADB7" />
<rect x="13" y="5" width="1" height="1" fill="#696A6A" />
<rect x="14" y="5" width="1" height="3" fill="#595652" />
<rect x="17" y="5" width="1" height="3" fill="#595652" />
<rect x="18" y="5" width="1" height="1" fill="#696A6A" />
<rect x="19" y="5" width="1" height="1" fill="#9BADB7" />
<rect x="11" y="6" width="1" height="1" fill="#9BADB7" />
<rect x="12" y="6" width="1" height="1" fill="#696A6A" />
<rect x="13" y="6" width="1" height="3" fill="#595652" />
<rect x="18" y="6" width="1" height="3" fill="#595652" />
<rect x="19" y="6" width="1" height="1" fill="#696A6A" />
<rect x="20" y="6" width="1" height="1" fill="#9BADB7" />
<rect x="10" y="7" width="1" height="1" fill="#9BADB7" />
<rect x="11" y="7" width="1" height="1" fill="#696A6A" />
<rect x="12" y="7" width="1" height="3" fill="#595652" />
<rect x="19" y="7" width="1" height="3" fill="#595652" />
<rect x="20" y="7" width="1" height="1" fill="#696A6A" />
<rect x="21" y="7" width="1" height="1" fill="#9BADB7" />
<rect x="9" y="8" width="1" height="1" fill="#9BADB7" />
<rect x="10" y="8" width="1" height="1" fill="#696A6A" />
<rect x="11" y="8" width="1" height="3" fill="#595652" />
<rect x="20" y="8" width="1" height="3" fill="#595652" />
<rect x="21" y="8" width="1" height="1" fill="#696A6A" />
<rect x="22" y="8" width="1" height="1" fill="#9BADB7" />
<rect x="8" y="9" width="1" height="1" fill="#9BADB7" />
<rect x="9" y="9" width="1" height="1" fill="#696A6A" />
<rect x="10" y="9" width="1" height="3" fill="#595652" />
<rect x="21" y="9" width="1" height="3" fill="#595652" />
<rect x="22" y="9" width="1" height="1" fill="#696A6A" />
<rect x="23" y="9" width="1" height="1" fill="#9BADB7" />
<rect x="7" y="10" width="1" height="1" fill="#9BADB7" />
<rect x="8" y="10" width="1" height="1" fill="#696A6A" />
<rect x="9" y="10" width="1" height="3" fill="#595652" />
<rect x="22" y="10" width="1" height="3" fill="#595652" />
<rect x="23" y="10" width="1" height="1" fill="#696A6A" />
<rect x="24" y="10" width="1" height="1" fill="#9BADB7" />
<rect x="6" y="11" width="1" height="1" fill="#9BADB7" />
<rect x="7" y="11" width="1" height="1" fill="#696A6A" />
<rect x="8" y="11" width="1" height="3" fill="#595652" />
<rect x="23" y="11" width="1" height="3" fill="#595652" />
<rect x="24" y="11" width="1" height="1" fill="#696A6A" />
<rect x="25" y="11" width="1" height="1" fill="#9BADB7" />
<rect x="5" y="12" width="1" height="1" fill="#9BADB7" />
<rect x="6" y="12" width="1" height="1" fill="#696A6A" />
<rect x="7" y="12" width="1" height="2" fill="#595652" />
<rect x="24" y="12" width="1" height="2" fill="#595652" />
<rect x="25" y="12" width="2" height="1" fill="#696A6A" />
<rect x="4" y="13" width="1" height="2" fill="#9BADB7" />
<rect x="5" y="13" width="1" height="1" fill="#696A6A" />
<rect x="6" y="13" width="1" height="1" fill="#595652" />
<rect x="25" y="13" width="1" height="1" fill="#595652" />
<rect x="26" y="13" width="2" height="1" fill="#696A6A" />
<rect x="3" y="14" width="1" height="1" fill="#9BADB7" />
<rect x="5" y="14" width="24" height="1" fill="#9BADB7" />
<rect x="2" y="15" width="27" height="1" fill="#696A6A" />
<rect x="29" y="15" width="1" height="2" fill="#9BADB7" />
<rect x="2" y="16" width="2" height="1" fill="#696A6A" />
<rect x="4" y="16" width="24" height="1" fill="#595652" />
<rect x="28" y="16" width="1" height="1" fill="#696A6A" />
<rect x="3" y="17" width="2" height="1" fill="#696A6A" />
<rect x="5" y="17" width="22" height="1" fill="#595652" />
<rect x="27" y="17" width="1" height="1" fill="#696A6A" />
<rect x="28" y="17" width="1" height="1" fill="#9BADB7" />
<rect x="4" y="18" width="2" height="1" fill="#696A6A" />
<rect x="6" y="18" width="3" height="1" fill="#595652" />
<rect x="23" y="18" width="3" height="1" fill="#595652" />
<rect x="26" y="18" width="1" height="1" fill="#696A6A" />
<rect x="27" y="18" width="1" height="1" fill="#9BADB7" />
<rect x="5" y="19" width="1" height="1" fill="#9BADB7" />
<rect x="6" y="19" width="1" height="1" fill="#696A6A" />
<rect x="7" y="19" width="3" height="1" fill="#595652" />
<rect x="22" y="19" width="3" height="1" fill="#595652" />
<rect x="25" y="19" width="1" height="1" fill="#696A6A" />
<rect x="26" y="19" width="1" height="1" fill="#9BADB7" />
<rect x="6" y="20" width="1" height="1" fill="#9BADB7" />
<rect x="7" y="20" width="1" height="1" fill="#696A6A" />
<rect x="8" y="20" width="3" height="1" fill="#595652" />
<rect x="21" y="20" width="3" height="1" fill="#595652" />
<rect x="24" y="20" width="1" height="1" fill="#696A6A" />
<rect x="25" y="20" width="1" height="1" fill="#9BADB7" />
<rect x="7" y="21" width="1" height="1" fill="#9BADB7" />
<rect x="8" y="21" width="1" height="1" fill="#696A6A" />
<rect x="9" y="21" width="3" height="1" fill="#595652" />
<rect x="20" y="21" width="3" height="1" fill="#595652" />
<rect x="23" y="21" width="1" height="1" fill="#696A6A" />
<rect x="24" y="21" width="1" height="1" fill="#9BADB7" />
<rect x="8" y="22" width="1" height="1" fill="#9BADB7" />
<rect x="9" y="22" width="1" height="1" fill="#696A6A" />
<rect x="10" y="22" width="3" height="1" fill="#595652" />
<rect x="19" y="22" width="3" height="1" fill="#595652" />
<rect x="22" y="22" width="1" height="1" fill="#696A6A" />
<rect x="23" y="22" width="1" height="1" fill="#9BADB7" />
<rect x="9" y="23" width="1" height="1" fill="#9BADB7" />
<rect x="10" y="23" width="1" height="1" fill="#696A6A" />
<rect x="11" y="23" width="3" height="1" fill="#595652" />
<rect x="18" y="23" width="3" height="1" fill="#595652" />
<rect x="21" y="23" width="1" height="1" fill="#696A6A" />
<rect x="22" y="23" width="1" height="1" fill="#9BADB7" />
<rect x="10" y="24" width="1" height="1" fill="#9BADB7" />
<rect x="11" y="24" width="1" height="1" fill="#696A6A" />
<rect x="12" y="24" width="3" height="1" fill="#595652" />
<rect x="17" y="24" width="3" height="1" fill="#595652" />
<rect x="20" y="24" width="1" height="1" fill="#696A6A" />
<rect x="21" y="24" width="1" height="1" fill="#9BADB7" />
<rect x="11" y="25" width="1" height="1" fill="#9BADB7" />
<rect x="12" y="25" width="1" height="1" fill="#696A6A" />
<rect x="13" y="25" width="6" height="1" fill="#595652" />
<rect x="19" y="25" width="1" height="1" fill="#696A6A" />
<rect x="20" y="25" width="1" height="1" fill="#9BADB7" />
<rect x="12" y="26" width="1" height="1" fill="#9BADB7" />
<rect x="13" y="26" width="1" height="1" fill="#696A6A" />
<rect x="14" y="26" width="4" height="1" fill="#595652" />
<rect x="18" y="26" width="1" height="1" fill="#696A6A" />
<rect x="19" y="26" width="1" height="1" fill="#9BADB7" />
<rect x="13" y="27" width="1" height="1" fill="#9BADB7" />
<rect x="14" y="27" width="1" height="1" fill="#696A6A" />
<rect x="15" y="27" width="2" height="1" fill="#595652" />
<rect x="17" y="27" width="1" height="1" fill="#696A6A" />
<rect x="18" y="27" width="1" height="1" fill="#9BADB7" />
<rect x="14" y="28" width="1" height="1" fill="#9BADB7" />
<rect x="15" y="28" width="2" height="1" fill="#696A6A" />
<rect x="17" y="28" width="1" height="1" fill="#9BADB7" />
<rect x="15" y="29" width="2" height="1" fill="#9BADB7" />
</svg>